<?xml version="1.0" encoding="utf-8"?>
<!-- Generator: Adobe Illustrator 19.2.1, SVG Export Plug-In . SVG Version: 6.00 Build 0)  -->
<svg version="1.1" id="Layer_1" xmlns="http://www.w3.org/2000/svg" xmlns:xlink="http://www.w3.org/1999/xlink" x="0px" y="0px"
	 viewBox="0 0 521.9 367" style="enable-background:new 0 0 521.9 367;" xml:space="preserve">
<g>
	<path d="M69.5,228.4c0,10-6.2,15.7-16.2,15.7c-6.6,0-12-2.7-16.1-7.5l5.5-8c3.4,3.5,7.1,5.2,9.8,5.2c3.1,0,5-1.9,5-5.8v-21.8h-16
		v-9.6h28.1L69.5,228.4L69.5,228.4z"/>
	<path d="M87.4,234.9l-3.4,8.6H71.7L92,196.7h12.3l19.8,46.9h-12.7L108,235H87.4V234.9z M97.7,208.5l-6.8,17.4h13.5L97.7,208.5z"/>
	<path d="M161.1,243.6l-21.6-28.9v28.9h-11.2v-46.9h10.5l21.6,28.9v-28.9h11.1v46.9H161.1z"/>
	<path d="M192.9,206.1v9.3h22.4v9.4h-22.4v9.4h25.5v9.4H181v-46.9h36.7v9.4L192.9,206.1L192.9,206.1z"/>
	<path d="M63.9,286.7V324H52v-37.3H38V277h40v9.6H63.9V286.7z"/>
	<path d="M83.1,324v-46.9H95V324H83.1z"/>
	<path d="M137.2,324l-21.6-28.9V324h-11.2v-46.9H115l21.6,28.9v-28.9h11.1V324H137.2z"/>
	<path d="M198.6,300.1v18.3c-5,3.6-12.9,6.1-19.5,6.1c-14.3,0-25.1-10.3-25.1-24c0-13.6,11.1-23.9,25.9-23.9c7,0,14.3,2.7,19.2,7
		l-6.7,8.1c-3.4-3.1-8.2-5.1-12.5-5.1c-7.7,0-13.6,6-13.6,13.9c0,8,6,14,13.7,14c2.4,0,5.5-0.9,8.3-2.3v-12.1H198.6z"/>
	<path d="M238.7,314v10h-31.8v-46.9h11.9V314H238.7z"/>
	<path d="M256.3,286.5v9.3h22.4v9.4h-22.4v9.4h25.5v9.4h-37.5v-46.9H281v9.4L256.3,286.5L256.3,286.5z"/>
	<path d="M313.7,324h-11.9v-14.8l-17.4-32.1h11.9l11.3,20.4l11.1-20.4h11.9l-17,31.8V324H313.7z"/>
</g>
<g>
	<path d="M511.9,10v347H10V10H511.9 M521.9,0H0v367h521.9V0L521.9,0z"/>
</g>
</svg>
